<mxfile host="65bd71144e">
    <diagram id="N6Zjw8eDp_2faTscKVZS" name="Page-1">
        <mxGraphModel dx="911" dy="1285" grid="1" gridSize="10" guides="1" tooltips="1" connect="1" arrows="1" fold="1" page="1" pageScale="1" pageWidth="500" pageHeight="700" math="0" shadow="0">
            <root>
                <mxCell id="0"/>
                <mxCell id="1" parent="0"/>
                <mxCell id="2" value="" style="html=1;dashed=1;" vertex="1" parent="1">
                    <mxGeometry x="20" y="-160" width="415" height="510" as="geometry"/>
                </mxCell>
                <mxCell id="3" value="&lt;b&gt;Process Unit&lt;/b&gt;" style="text;html=1;strokeColor=none;fillColor=none;align=center;verticalAlign=middle;whiteSpace=wrap;rounded=0;" vertex="1" parent="1">
                    <mxGeometry x="177" y="-140" width="110" height="30" as="geometry"/>
                </mxCell>
                <mxCell id="4" value="&lt;span style=&quot;&quot;&gt;Users&lt;/span&gt;" style="ellipse;whiteSpace=wrap;html=1;aspect=fixed;" vertex="1" parent="1">
                    <mxGeometry x="27" y="-50" width="80" height="80" as="geometry"/>
                </mxCell>
                <mxCell id="5" value="&lt;span style=&quot;&quot;&gt;Auth&lt;/span&gt;" style="ellipse;whiteSpace=wrap;html=1;aspect=fixed;" vertex="1" parent="1">
                    <mxGeometry x="87" y="160" width="80" height="80" as="geometry"/>
                </mxCell>
                <mxCell id="6" value="&lt;span style=&quot;&quot;&gt;Training&lt;/span&gt;" style="ellipse;whiteSpace=wrap;html=1;aspect=fixed;" vertex="1" parent="1">
                    <mxGeometry x="347" y="150" width="80" height="80" as="geometry"/>
                </mxCell>
                <mxCell id="7" value="&lt;span style=&quot;&quot;&gt;Groups&lt;/span&gt;" style="ellipse;whiteSpace=wrap;html=1;aspect=fixed;" vertex="1" parent="1">
                    <mxGeometry x="137" y="55" width="80" height="80" as="geometry"/>
                </mxCell>
                <mxCell id="8" value="&lt;span style=&quot;&quot;&gt;Chats&lt;/span&gt;" style="ellipse;whiteSpace=wrap;html=1;aspect=fixed;" vertex="1" parent="1">
                    <mxGeometry x="237" y="-60" width="80" height="80" as="geometry"/>
                </mxCell>
                <mxCell id="9" value="&lt;span style=&quot;&quot;&gt;Athletic&lt;br&gt;Metrics&lt;br&gt;&lt;/span&gt;" style="ellipse;whiteSpace=wrap;html=1;aspect=fixed;" vertex="1" parent="1">
                    <mxGeometry x="300" y="30" width="80" height="80" as="geometry"/>
                </mxCell>
                <mxCell id="10" value="Actor" style="shape=umlActor;verticalLabelPosition=bottom;verticalAlign=top;html=1;" vertex="1" parent="1">
                    <mxGeometry x="220" y="610" width="30" height="60" as="geometry"/>
                </mxCell>
                <mxCell id="11" value="" style="endArrow=classic;html=1;rounded=0;entryX=0.075;entryY=1.02;entryDx=0;entryDy=0;entryPerimeter=0;" edge="1" parent="1" target="32">
                    <mxGeometry width="50" height="50" relative="1" as="geometry">
                        <mxPoint x="200" y="640" as="sourcePoint"/>
                        <mxPoint x="70" y="570" as="targetPoint"/>
                        <Array as="points">
                            <mxPoint x="80" y="640"/>
                        </Array>
                    </mxGeometry>
                </mxCell>
                <mxCell id="12" value="registers" style="text;html=1;strokeColor=none;fillColor=none;align=center;verticalAlign=middle;whiteSpace=wrap;rounded=0;dashed=1;" vertex="1" parent="1">
                    <mxGeometry x="100" y="610" width="60" height="30" as="geometry"/>
                </mxCell>
                <mxCell id="13" value="" style="endArrow=classic;html=1;rounded=0;entryX=0.197;entryY=1.02;entryDx=0;entryDy=0;entryPerimeter=0;" edge="1" parent="1" target="32">
                    <mxGeometry width="50" height="50" relative="1" as="geometry">
                        <mxPoint x="180" y="610" as="sourcePoint"/>
                        <mxPoint x="150" y="540" as="targetPoint"/>
                        <Array as="points">
                            <mxPoint x="121" y="610"/>
                        </Array>
                    </mxGeometry>
                </mxCell>
                <mxCell id="14" value="logs in" style="text;html=1;strokeColor=none;fillColor=none;align=center;verticalAlign=middle;whiteSpace=wrap;rounded=0;dashed=1;" vertex="1" parent="1">
                    <mxGeometry x="120" y="580" width="60" height="30" as="geometry"/>
                </mxCell>
                <mxCell id="15" value="" style="endArrow=classic;html=1;rounded=0;exitX=0.5;exitY=0;exitDx=0;exitDy=0;dashed=1;" edge="1" parent="1" source="5" target="4">
                    <mxGeometry width="50" height="50" relative="1" as="geometry">
                        <mxPoint x="197" y="220" as="sourcePoint"/>
                        <mxPoint x="247" y="170" as="targetPoint"/>
                    </mxGeometry>
                </mxCell>
                <mxCell id="16" value="asks for&lt;br&gt;user" style="text;html=1;strokeColor=none;fillColor=none;align=center;verticalAlign=middle;whiteSpace=wrap;rounded=0;dashed=1;" vertex="1" parent="1">
                    <mxGeometry x="57" y="130" width="60" height="30" as="geometry"/>
                </mxCell>
                <mxCell id="17" value="" style="endArrow=classic;html=1;rounded=0;entryX=0.411;entryY=1;entryDx=0;entryDy=0;entryPerimeter=0;" edge="1" parent="1" target="32">
                    <mxGeometry width="50" height="50" relative="1" as="geometry">
                        <mxPoint x="200" y="610" as="sourcePoint"/>
                        <mxPoint x="200" y="440" as="targetPoint"/>
                        <Array as="points">
                            <mxPoint x="200" y="570"/>
                        </Array>
                    </mxGeometry>
                </mxCell>
                <mxCell id="18" value="participates&lt;br&gt;in group" style="text;html=1;strokeColor=none;fillColor=none;align=center;verticalAlign=middle;whiteSpace=wrap;rounded=0;dashed=1;" vertex="1" parent="1">
                    <mxGeometry x="137" y="500" width="60" height="30" as="geometry"/>
                </mxCell>
                <mxCell id="19" value="" style="endArrow=classic;html=1;rounded=0;exitX=0;exitY=0;exitDx=0;exitDy=0;dashed=1;entryX=0.988;entryY=0.738;entryDx=0;entryDy=0;entryPerimeter=0;" edge="1" parent="1" source="7" target="4">
                    <mxGeometry width="50" height="50" relative="1" as="geometry">
                        <mxPoint x="137" y="170" as="sourcePoint"/>
                        <mxPoint x="90.31280470940612" y="37.71961334331718" as="targetPoint"/>
                    </mxGeometry>
                </mxCell>
                <mxCell id="20" value="uses" style="text;html=1;strokeColor=none;fillColor=none;align=center;verticalAlign=middle;whiteSpace=wrap;rounded=0;dashed=1;" vertex="1" parent="1">
                    <mxGeometry x="97" y="50" width="60" height="30" as="geometry"/>
                </mxCell>
                <mxCell id="21" value="" style="endArrow=classic;startArrow=classic;html=1;rounded=0;entryX=1;entryY=0;entryDx=0;entryDy=0;dashed=1;" edge="1" parent="1" target="7">
                    <mxGeometry width="50" height="50" relative="1" as="geometry">
                        <mxPoint x="257" y="10" as="sourcePoint"/>
                        <mxPoint x="247" y="170" as="targetPoint"/>
                    </mxGeometry>
                </mxCell>
                <mxCell id="22" value="use" style="text;html=1;strokeColor=none;fillColor=none;align=center;verticalAlign=middle;whiteSpace=wrap;rounded=0;dashed=1;" vertex="1" parent="1">
                    <mxGeometry x="212" y="40" width="60" height="30" as="geometry"/>
                </mxCell>
                <mxCell id="23" value="" style="endArrow=classic;html=1;rounded=0;entryX=0.603;entryY=1.02;entryDx=0;entryDy=0;entryPerimeter=0;" edge="1" parent="1" target="32">
                    <mxGeometry width="50" height="50" relative="1" as="geometry">
                        <mxPoint x="270" y="610" as="sourcePoint"/>
                        <mxPoint x="240" y="500" as="targetPoint"/>
                    </mxGeometry>
                </mxCell>
                <mxCell id="24" value="communicates&lt;br&gt;in chats" style="text;html=1;strokeColor=none;fillColor=none;align=center;verticalAlign=middle;whiteSpace=wrap;rounded=0;dashed=1;" vertex="1" parent="1">
                    <mxGeometry x="212" y="470" width="60" height="30" as="geometry"/>
                </mxCell>
                <mxCell id="25" value="" style="endArrow=classic;html=1;rounded=0;exitX=0;exitY=0.588;exitDx=0;exitDy=0;dashed=1;entryX=0.21;entryY=0.294;entryDx=0;entryDy=0;entryPerimeter=0;exitPerimeter=0;" edge="1" parent="1" source="8" target="2">
                    <mxGeometry width="50" height="50" relative="1" as="geometry">
                        <mxPoint x="158.7157287525381" y="76.7157287525381" as="sourcePoint"/>
                        <mxPoint x="116.03999999999996" y="19.039999999999964" as="targetPoint"/>
                    </mxGeometry>
                </mxCell>
                <mxCell id="26" value="uses" style="text;html=1;strokeColor=none;fillColor=none;align=center;verticalAlign=middle;whiteSpace=wrap;rounded=0;dashed=1;" vertex="1" parent="1">
                    <mxGeometry x="152" y="-40" width="60" height="30" as="geometry"/>
                </mxCell>
                <mxCell id="27" value="" style="endArrow=classic;html=1;rounded=0;entryX=0.75;entryY=1;entryDx=0;entryDy=0;" edge="1" parent="1" target="32">
                    <mxGeometry width="50" height="50" relative="1" as="geometry">
                        <mxPoint x="290" y="620" as="sourcePoint"/>
                        <mxPoint x="317" y="565" as="targetPoint"/>
                        <Array as="points">
                            <mxPoint x="320" y="620"/>
                        </Array>
                    </mxGeometry>
                </mxCell>
                <mxCell id="28" value="sends&lt;br&gt;metrics" style="text;html=1;strokeColor=none;fillColor=none;align=center;verticalAlign=middle;whiteSpace=wrap;rounded=0;dashed=1;" vertex="1" parent="1">
                    <mxGeometry x="267" y="510" width="60" height="30" as="geometry"/>
                </mxCell>
                <mxCell id="29" value="" style="endArrow=classic;html=1;rounded=0;entryX=0.956;entryY=1.02;entryDx=0;entryDy=0;entryPerimeter=0;" edge="1" parent="1" target="32">
                    <mxGeometry width="50" height="50" relative="1" as="geometry">
                        <mxPoint x="290" y="640" as="sourcePoint"/>
                        <mxPoint x="420" y="570" as="targetPoint"/>
                        <Array as="points">
                            <mxPoint x="394" y="640"/>
                        </Array>
                    </mxGeometry>
                </mxCell>
                <mxCell id="30" value="plans&lt;br&gt;trainings" style="text;html=1;strokeColor=none;fillColor=none;align=center;verticalAlign=middle;whiteSpace=wrap;rounded=0;dashed=1;" vertex="1" parent="1">
                    <mxGeometry x="340" y="580" width="60" height="30" as="geometry"/>
                </mxCell>
                <mxCell id="32" value="API Gateway" style="html=1;" vertex="1" parent="1">
                    <mxGeometry x="50" y="390" width="360" height="50" as="geometry"/>
                </mxCell>
                <mxCell id="34" value="" style="endArrow=classic;html=1;rounded=0;exitX=0.194;exitY=0;exitDx=0;exitDy=0;dashed=1;exitPerimeter=0;entryX=0.4;entryY=1;entryDx=0;entryDy=0;entryPerimeter=0;" edge="1" parent="1" source="32" target="5">
                    <mxGeometry width="50" height="50" relative="1" as="geometry">
                        <mxPoint x="137" y="170" as="sourcePoint"/>
                        <mxPoint x="90.31280470940055" y="37.71961334330172" as="targetPoint"/>
                    </mxGeometry>
                </mxCell>
                <mxCell id="35" value="authenitcates" style="text;html=1;strokeColor=none;fillColor=none;align=center;verticalAlign=middle;whiteSpace=wrap;rounded=0;dashed=1;" vertex="1" parent="1">
                    <mxGeometry x="47" y="280" width="60" height="30" as="geometry"/>
                </mxCell>
                <mxCell id="36" value="" style="endArrow=classic;html=1;rounded=0;exitX=0.358;exitY=-0.08;exitDx=0;exitDy=0;dashed=1;exitPerimeter=0;entryX=0.5;entryY=1;entryDx=0;entryDy=0;" edge="1" parent="1" source="32" target="7">
                    <mxGeometry width="50" height="50" relative="1" as="geometry">
                        <mxPoint x="129.83999999999992" y="400" as="sourcePoint"/>
                        <mxPoint x="129" y="250" as="targetPoint"/>
                    </mxGeometry>
                </mxCell>
                <mxCell id="37" value="makes user&lt;br&gt;a member" style="text;html=1;strokeColor=none;fillColor=none;align=center;verticalAlign=middle;whiteSpace=wrap;rounded=0;dashed=1;" vertex="1" parent="1">
                    <mxGeometry x="130" y="290" width="60" height="30" as="geometry"/>
                </mxCell>
                <mxCell id="38" value="" style="endArrow=classic;html=1;rounded=0;exitX=0.642;exitY=-0.04;exitDx=0;exitDy=0;dashed=1;exitPerimeter=0;entryX=0.5;entryY=1;entryDx=0;entryDy=0;" edge="1" parent="1" source="32" target="8">
                    <mxGeometry width="50" height="50" relative="1" as="geometry">
                        <mxPoint x="188.8800000000001" y="396" as="sourcePoint"/>
                        <mxPoint x="187" y="145" as="targetPoint"/>
                    </mxGeometry>
                </mxCell>
                <mxCell id="39" value="sends messages" style="text;html=1;strokeColor=none;fillColor=none;align=center;verticalAlign=middle;whiteSpace=wrap;rounded=0;dashed=1;" vertex="1" parent="1">
                    <mxGeometry x="217" y="200" width="60" height="30" as="geometry"/>
                </mxCell>
                <mxCell id="40" value="" style="endArrow=classic;html=1;rounded=0;exitX=0.786;exitY=-0.1;exitDx=0;exitDy=0;dashed=1;entryX=0.388;entryY=1.013;entryDx=0;entryDy=0;entryPerimeter=0;exitPerimeter=0;" edge="1" parent="1" source="32" target="9">
                    <mxGeometry width="50" height="50" relative="1" as="geometry">
                        <mxPoint x="291.1199999999999" y="398" as="sourcePoint"/>
                        <mxPoint x="287" y="30" as="targetPoint"/>
                    </mxGeometry>
                </mxCell>
                <mxCell id="41" value="writes" style="text;html=1;strokeColor=none;fillColor=none;align=center;verticalAlign=middle;whiteSpace=wrap;rounded=0;dashed=1;" vertex="1" parent="1">
                    <mxGeometry x="280" y="250" width="60" height="30" as="geometry"/>
                </mxCell>
                <mxCell id="42" value="" style="endArrow=classic;html=1;rounded=0;exitX=0.942;exitY=0;exitDx=0;exitDy=0;dashed=1;exitPerimeter=0;" edge="1" parent="1" source="32" target="6">
                    <mxGeometry width="50" height="50" relative="1" as="geometry">
                        <mxPoint x="342.96000000000004" y="395" as="sourcePoint"/>
                        <mxPoint x="341.03999999999996" y="121.03999999999996" as="targetPoint"/>
                    </mxGeometry>
                </mxCell>
                <mxCell id="44" value="asks for&lt;br&gt;plans" style="text;html=1;strokeColor=none;fillColor=none;align=center;verticalAlign=middle;whiteSpace=wrap;rounded=0;dashed=1;" vertex="1" parent="1">
                    <mxGeometry x="330" y="290" width="60" height="30" as="geometry"/>
                </mxCell>
            </root>
        </mxGraphModel>
    </diagram>
</mxfile>